<svg width="100" height="26" viewBox="0 0 100 26" fill="none" xmlns="http://www.w3.org/2000/svg">
<line x1="2" y1="5" x2="2" y2="21" stroke="url(#paint0_linear_333_192)" stroke-width="4" stroke-linecap="round"/>
<line x1="12" y1="7" x2="12" y2="19" stroke="url(#paint1_linear_333_192)" stroke-width="4" stroke-linecap="round"/>
<line x1="22" y1="9" x2="22" y2="17" stroke="url(#paint2_linear_333_192)" stroke-width="4" stroke-linecap="round"/>
<path d="M43.2666 13.5664V19.1309C43.0876 19.3958 42.7796 19.6895 42.3428 20.0117C41.9059 20.334 41.3187 20.6169 40.5811 20.8604C39.8434 21.0967 38.9268 21.2148 37.8311 21.2148C36.9144 21.2148 36.0729 21.0501 35.3066 20.7207C34.5404 20.3913 33.8743 19.915 33.3086 19.292C32.75 18.6618 32.3167 17.9062 32.0088 17.0254C31.708 16.1445 31.5576 15.1562 31.5576 14.0605V12.1699C31.5576 11.0957 31.6973 10.1289 31.9766 9.26953C32.2559 8.40299 32.6605 7.66178 33.1904 7.0459C33.7204 6.43001 34.3577 5.96094 35.1025 5.63867C35.8545 5.30924 36.696 5.14453 37.627 5.14453C38.7871 5.14453 39.7646 5.34505 40.5596 5.74609C41.3545 6.14714 41.974 6.69857 42.418 7.40039C42.8691 8.09505 43.1484 8.88281 43.2559 9.76367H41.9346C41.8343 9.14062 41.6266 8.56771 41.3115 8.04492C40.9964 7.51497 40.5381 7.08887 39.9365 6.7666C39.3421 6.44434 38.5723 6.2832 37.627 6.2832C36.8678 6.2832 36.1911 6.42285 35.5967 6.70215C35.0094 6.98145 34.5153 7.37891 34.1143 7.89453C33.7132 8.41016 33.4089 9.02962 33.2012 9.75293C32.9935 10.4691 32.8896 11.2676 32.8896 12.1484V14.0605C32.8896 14.9772 33.0042 15.8044 33.2334 16.542C33.4697 17.2796 33.8063 17.9134 34.2432 18.4434C34.68 18.9733 35.2028 19.3815 35.8115 19.668C36.4202 19.9473 37.097 20.0869 37.8418 20.0869C38.6367 20.0869 39.3135 20.0117 39.8721 19.8613C40.4307 19.7109 40.8783 19.5319 41.2148 19.3242C41.5586 19.1094 41.8057 18.9089 41.9561 18.7227V14.6943H37.7559V13.5664H43.2666ZM48.0254 11.2998V21H46.7471V9.37695H47.9932L48.0254 11.2998ZM52.1396 9.29102L52.1074 10.4727C51.9642 10.4512 51.8245 10.4333 51.6885 10.4189C51.5524 10.4046 51.4056 10.3975 51.248 10.3975C50.6895 10.3975 50.1989 10.5013 49.7764 10.709C49.361 10.9095 49.0101 11.1924 48.7236 11.5576C48.4372 11.9157 48.2188 12.3382 48.0684 12.8252C47.918 13.305 47.832 13.8206 47.8105 14.3721L47.3379 14.5547C47.3379 13.7956 47.4167 13.0902 47.5742 12.4385C47.7318 11.7868 47.9717 11.2174 48.2939 10.7305C48.6234 10.2363 49.0352 9.85319 49.5293 9.58105C50.0306 9.30176 50.6178 9.16211 51.291 9.16211C51.4557 9.16211 51.6169 9.17643 51.7744 9.20508C51.9391 9.22656 52.0609 9.25521 52.1396 9.29102ZM60.7979 18.916V12.9219C60.7979 12.3704 60.6833 11.8942 60.4541 11.4932C60.2249 11.0921 59.8883 10.7842 59.4443 10.5693C59.0003 10.3545 58.4525 10.2471 57.8008 10.2471C57.1992 10.2471 56.6621 10.3545 56.1895 10.5693C55.724 10.777 55.3551 11.0599 55.083 11.418C54.818 11.7689 54.6855 12.1592 54.6855 12.5889L53.3965 12.5781C53.3965 12.1413 53.5039 11.7188 53.7188 11.3105C53.9336 10.9023 54.238 10.5371 54.6318 10.2148C55.0257 9.89258 55.4948 9.63835 56.0391 9.45215C56.5905 9.25879 57.1956 9.16211 57.8545 9.16211C58.6852 9.16211 59.4157 9.30176 60.0459 9.58105C60.6833 9.86035 61.181 10.2793 61.5391 10.8379C61.8971 11.3965 62.0762 12.0983 62.0762 12.9434V18.5615C62.0762 18.9626 62.1048 19.3779 62.1621 19.8076C62.2266 20.2373 62.3161 20.5918 62.4307 20.8711V21H61.0664C60.9805 20.7422 60.9124 20.4199 60.8623 20.0332C60.8193 19.6393 60.7979 19.2669 60.7979 18.916ZM61.0986 14.2324L61.1201 15.2207H58.5957C57.9368 15.2207 57.346 15.2816 56.8232 15.4033C56.3076 15.5179 55.8708 15.6898 55.5127 15.9189C55.1546 16.141 54.8789 16.4095 54.6855 16.7246C54.4993 17.0397 54.4062 17.3978 54.4062 17.7988C54.4062 18.2142 54.5101 18.5938 54.7178 18.9375C54.9326 19.2812 55.2334 19.557 55.6201 19.7646C56.014 19.9652 56.4795 20.0654 57.0166 20.0654C57.7327 20.0654 58.363 19.9329 58.9072 19.668C59.4587 19.403 59.9134 19.0557 60.2715 18.626C60.6296 18.1963 60.8695 17.7272 60.9912 17.2188L61.5498 17.96C61.4567 18.318 61.2848 18.6868 61.0342 19.0664C60.7907 19.4388 60.472 19.7897 60.0781 20.1191C59.6842 20.4414 59.2188 20.7064 58.6816 20.9141C58.1517 21.1146 57.5501 21.2148 56.877 21.2148C56.1178 21.2148 55.4554 21.0716 54.8896 20.7852C54.3311 20.4987 53.8942 20.1084 53.5791 19.6143C53.2712 19.113 53.1172 18.5472 53.1172 17.917C53.1172 17.3441 53.2389 16.832 53.4824 16.3809C53.7259 15.9225 54.0768 15.5358 54.5352 15.2207C55.0007 14.8984 55.5592 14.6549 56.2109 14.4902C56.8698 14.3184 57.6074 14.2324 58.4238 14.2324H61.0986ZM66.792 11.6113V25.4688H65.5029V9.37695H66.7061L66.792 11.6113ZM74.8701 15.0811V15.3066C74.8701 16.1732 74.7699 16.9681 74.5693 17.6914C74.3688 18.4147 74.0788 19.0413 73.6992 19.5713C73.3268 20.0941 72.8649 20.4987 72.3135 20.7852C71.762 21.0716 71.1354 21.2148 70.4336 21.2148C69.7389 21.2148 69.1195 21.1074 68.5752 20.8926C68.0309 20.6777 67.5618 20.3734 67.168 19.9795C66.7812 19.5785 66.4697 19.113 66.2334 18.583C66.0042 18.0459 65.8431 17.4587 65.75 16.8213V13.8457C65.8574 13.1439 66.0329 12.5065 66.2764 11.9336C66.5199 11.3607 66.8314 10.8665 67.2109 10.4512C67.5977 10.0358 68.056 9.71712 68.5859 9.49512C69.1159 9.27311 69.721 9.16211 70.4014 9.16211C71.1104 9.16211 71.7406 9.30176 72.292 9.58105C72.8506 9.85319 73.3197 10.2507 73.6992 10.7734C74.0859 11.2891 74.376 11.9121 74.5693 12.6426C74.7699 13.3659 74.8701 14.1787 74.8701 15.0811ZM73.5811 15.3066V15.0811C73.5811 14.4007 73.5094 13.7705 73.3662 13.1904C73.2301 12.6104 73.0189 12.1055 72.7324 11.6758C72.4531 11.2389 72.0951 10.8988 71.6582 10.6553C71.2285 10.4118 70.7165 10.29 70.1221 10.29C69.5062 10.29 68.9798 10.3939 68.543 10.6016C68.1133 10.8021 67.7552 11.0706 67.4688 11.4072C67.1823 11.7367 66.9567 12.0983 66.792 12.4922C66.6273 12.8861 66.5055 13.2728 66.4268 13.6523V17.0791C66.5628 17.6234 66.7812 18.1283 67.082 18.5938C67.3828 19.0521 67.7839 19.4209 68.2852 19.7002C68.7936 19.9723 69.4131 20.1084 70.1436 20.1084C70.7308 20.1084 71.2393 19.9867 71.6689 19.7432C72.0986 19.4997 72.4531 19.1595 72.7324 18.7227C73.0189 18.2858 73.2301 17.7773 73.3662 17.1973C73.5094 16.6172 73.5811 15.987 73.5811 15.3066ZM79.0059 4.5V21H77.7275V4.5H79.0059ZM78.7158 14.4688L78.1465 14.1465C78.1895 13.459 78.3291 12.8145 78.5654 12.2129C78.8018 11.6113 79.1204 11.0814 79.5215 10.623C79.9297 10.1647 80.4059 9.80664 80.9502 9.54883C81.5016 9.29102 82.1104 9.16211 82.7764 9.16211C83.3564 9.16211 83.8757 9.24089 84.334 9.39844C84.7923 9.55599 85.1826 9.80664 85.5049 10.1504C85.8271 10.4941 86.0706 10.9346 86.2354 11.4717C86.4072 12.0088 86.4932 12.6641 86.4932 13.4375V21H85.2041V13.4268C85.2041 12.6247 85.0931 11.998 84.8711 11.5469C84.6491 11.0885 84.334 10.7627 83.9258 10.5693C83.5176 10.376 83.0342 10.2793 82.4756 10.2793C81.8597 10.2793 81.319 10.4154 80.8535 10.6875C80.3952 10.9525 80.0085 11.2998 79.6934 11.7295C79.3854 12.152 79.1491 12.6068 78.9844 13.0938C78.8197 13.5736 78.7301 14.0319 78.7158 14.4688ZM96.7627 18.0352C96.7627 17.7201 96.6839 17.4085 96.5264 17.1006C96.3688 16.7926 96.0645 16.5098 95.6133 16.252C95.1693 15.9941 94.514 15.7757 93.6475 15.5967C93.0029 15.4535 92.4264 15.2923 91.918 15.1133C91.4167 14.9342 90.9941 14.7194 90.6504 14.4688C90.3066 14.2181 90.0452 13.9173 89.8662 13.5664C89.6872 13.2155 89.5977 12.8001 89.5977 12.3203C89.5977 11.8906 89.6908 11.486 89.877 11.1064C90.0703 10.7197 90.3424 10.3831 90.6934 10.0967C91.0514 9.80306 91.4811 9.57389 91.9824 9.40918C92.4909 9.24447 93.0602 9.16211 93.6904 9.16211C94.5856 9.16211 95.3519 9.31608 95.9893 9.62402C96.6338 9.9248 97.1243 10.3366 97.4609 10.8594C97.8047 11.3822 97.9766 11.973 97.9766 12.6318H96.6982C96.6982 12.2308 96.5801 11.8512 96.3438 11.4932C96.1146 11.1351 95.7744 10.8415 95.3232 10.6123C94.8792 10.3831 94.335 10.2686 93.6904 10.2686C93.0244 10.2686 92.4837 10.3688 92.0684 10.5693C91.653 10.7699 91.3486 11.0241 91.1553 11.332C90.9691 11.64 90.876 11.9587 90.876 12.2881C90.876 12.5459 90.9154 12.7822 90.9941 12.9971C91.0801 13.2048 91.2305 13.3981 91.4453 13.5771C91.6673 13.7562 91.9824 13.9245 92.3906 14.082C92.7988 14.2396 93.3288 14.3936 93.9805 14.5439C94.9186 14.7516 95.6849 15.0059 96.2793 15.3066C96.8809 15.6003 97.3249 15.9655 97.6113 16.4023C97.8978 16.832 98.041 17.3548 98.041 17.9707C98.041 18.4505 97.9408 18.891 97.7402 19.292C97.5397 19.6859 97.2497 20.026 96.8701 20.3125C96.4977 20.599 96.0465 20.821 95.5166 20.9785C94.9938 21.1361 94.4066 21.2148 93.7549 21.2148C92.7738 21.2148 91.943 21.0537 91.2627 20.7314C90.5895 20.402 90.0775 19.9723 89.7266 19.4424C89.3828 18.9053 89.2109 18.3359 89.2109 17.7344H90.4893C90.5322 18.3359 90.722 18.8122 91.0586 19.1631C91.3952 19.5068 91.807 19.7503 92.2939 19.8936C92.7881 20.0368 93.2751 20.1084 93.7549 20.1084C94.4137 20.1084 94.9652 20.0117 95.4092 19.8184C95.8532 19.625 96.1898 19.3708 96.4189 19.0557C96.6481 18.7406 96.7627 18.4004 96.7627 18.0352Z" fill="black"/>
<defs>
<linearGradient id="paint0_linear_333_192" x1="-0.5" y1="3" x2="-0.5" y2="23" gradientUnits="userSpaceOnUse">
<stop stop-color="#EC008C"/>
<stop offset="1" stop-color="#FC6767"/>
</linearGradient>
<linearGradient id="paint1_linear_333_192" x1="9.5" y1="5" x2="9.5" y2="21" gradientUnits="userSpaceOnUse">
<stop stop-color="#E65C00"/>
<stop offset="1" stop-color="#F9D423"/>
</linearGradient>
<linearGradient id="paint2_linear_333_192" x1="19.5" y1="7" x2="19.5" y2="19" gradientUnits="userSpaceOnUse">
<stop stop-color="#00D2FF"/>
<stop offset="1" stop-color="#3A7BD5"/>
</linearGradient>
</defs>
</svg>
